# xmcd
#
# Track frame offsets:
#	150
#	12927
#	42415
#	54457
#	74970
#	88635
#	102750
#	119095
#	132142
#	145437
#	161215
#	172930
#
# Disc length: 2495
#
# Revision: 1
# Processed by: cddbd v1.5.1PL0 Copyright (c) Steve Scherf et al.
# Submitted via: CDex 1.51
# Normalized: r0:TDELIM( - )
#
DISCID=b009bd0c
DTITLE=Axiva Collection - Jazz Classics edition 2
DYEAR=2000
DGENRE=Jazz
TTITLE0=Louis Armstrong - Jelly Roll Blues
TTITLE1=Benny Goodman - Sing Sing Sing
TTITLE2=Errol Garner - Moonglow
TTITLE3=Ella Fitzgerald and Louis Armstrong - A foggy day
TTITLE4=Count Basi and His Orchestra - My heart belongs to daddy
TTITLE5=Bis Beiderbecke - Jazz me blues
TTITLE6=Glenn Miller - In the mood
TTITLE7=Ella Fitzgerald - Lullaby of Birdland
TTITLE8=Ella Fitzgerald and Louis Armstrong - Angel eyes
TTITLE9=Billy Holiday - Blue moon
TTITLE10=Louis Armstrong - Hello Dolly
TTITLE11=Duke Ellington - It don´t mean a thing
EXTD=YEAR: 2000
EXTT0=
EXTT1=
EXTT2=
EXTT3=
EXTT4=
EXTT5=
EXTT6=
EXTT7=
EXTT8=
EXTT9=
EXTT10=
EXTT11=
PLAYORDER=
